<?xml version="1.0" encoding="UTF-8"?>
<svg id="Layer_1" xmlns="http://www.w3.org/2000/svg" viewBox="0 0 306.8 68.73">
  <polygon fill="#0c0c0c" points="46.54 29.94 23.2 29.94 23.2 12.46 11.67 12.46 11.67 56.12 23.2 56.12 23.2 36.86 46.54 36.86 46.54 56.12 58.13 56.12 58.13 12.46 46.54 12.46 46.54 29.94"/>
  <rect fill="#0c0c0c" x="67.67" y="12.46" width="11.67" height="43.67"/>
  <rect fill="#0c0c0c" x="283.46" y="12.46" width="11.67" height="43.67"/>
  <polygon fill="#0c0c0c" points="128.93 12.46 83.6 12.46 83.6 19.73 100.54 19.73 100.54 56.12 111.99 56.12 111.99 19.73 128.93 19.73 128.93 12.46"/>
  <path fill="#0c0c0c" d="M139.67,12.53l-20.7,43.59h12.95l4.06-9.78h21.84l3.99,9.78h13.02l-20.56-43.59h-14.59ZM138.89,39.43l8.04-19.48,7.97,19.48h-16.01Z"/>
  <path fill="#0c0c0c" d="M198.87,50.49c-4.48,0-13.66-.93-13.8-16.05-.14-14.27,8.25-16.27,13.8-16.27,5.48.07,10.96,2.64,11.03,9.13h11.81c-.15-7.92-6.97-15.48-22.84-15.63-11.81-.07-26.11,4.78-26.18,22.55-.07,17.62,14.52,23.12,26.18,22.83,10.74-.36,22.7-3.35,23.2-16.62l-11.88.07c-.36,8.28-6.97,9.92-11.31,9.99Z"/>
  <polygon fill="#0c0c0c" points="262.62 29.94 239.28 29.94 239.28 12.46 227.76 12.46 227.76 56.12 239.28 56.12 239.28 36.86 262.62 36.86 262.62 56.12 274.14 56.12 274.14 12.46 262.62 12.46 262.62 29.94"/>
</svg>
